<svg width="200" height="150" viewBox="0 0 200 150" xmlns="http://www.w3.org/2000/svg">
  <!-- Gota de sangue característica -->
  <path d="M100 8 C100 8, 88 20, 88 28 C88 36, 93 40, 100 40 C107 40, 112 36, 112 28 C112 20, 100 8, 100 8 Z" fill="#DC2626"/>
  
  <!-- Coração principal -->
  <path d="M100 55 C80 30, 45 30, 45 60 C45 85, 100 120, 100 120 C100 120, 155 85, 155 60 C155 30, 120 30, 100 55 Z" fill="#DC2626"/>
  
  <!-- Parte branca superior do coração -->
  <path d="M100 55 C82 37, 60 37, 60 57 C60 70, 78 77, 100 80 C122 77, 140 70, 140 57 C140 37, 118 37, 100 55 Z" fill="white"/>
  
  <!-- Texto "Hemonit" -->
  <text x="100" y="142" text-anchor="middle" font-family="Arial, sans-serif" font-size="16" font-weight="bold" fill="#DC2626">Hemonit</text>
</svg>